<?xml version="1.0" encoding="utf-8" ?>
<svg baseProfile="full" height="200mm" version="1.1" viewBox="0,0,200,200" width="200mm" xmlns="http://www.w3.org/2000/svg" xmlns:ev="http://www.w3.org/2001/xml-events" xmlns:xlink="http://www.w3.org/1999/xlink"><defs /><rect fill="#1a1a1a" height="200" width="200" x="0" y="0" /><text alignment-baseline="middle" fill="#e1ed5e" style="dominant-baseline: central; font-size:9.0px; font-family:Arial;" text-anchor="middle" x="100.0" y="100.0">2016</text><line stroke="#e1ed5e" stroke-width="0.3" x1="100.0" x2="100.0" y1="15.0" y2="10.0" /><path d="M 100.0 14.0 a86.0,86.0 0 0,1 42.35913384403234,11.155469271406648" fill="none" id="id1" stroke="none" /><text fill="#e1ed5e" style="font-size:6.75px; font-family:Arial;" text-anchor="middle"><textPath startOffset="22.145653131862478" xlink:href="#id1">January</textPath></text><line stroke="#e1ed5e" stroke-width="0.3" x1="143.13028292997686" x2="145.6673583964461" y1="26.7553504044142" y2="22.446841604673864" /><path d="M 143.63769802327073 25.89364864446614 a86.0,86.0 0 0,1 29.32050498858742,28.57503671076993" fill="none" id="id2" stroke="none" /><text fill="#e1ed5e" style="font-size:6.75px; font-family:Arial;" text-anchor="middle"><textPath startOffset="20.669276256404974" xlink:href="#id2">February</textPath></text><line stroke="#e1ed5e" stroke-width="0.3" x1="172.87174338648825" x2="177.1583165268699" y1="56.24261187166439" y2="53.66864786411523" /><path d="M 173.72905801456457 55.72781907015455 a86.0,86.0 0 0,1 12.242430191666344,42.057860355516425" fill="none" id="id3" stroke="none" /><text fill="#e1ed5e" style="font-size:6.75px; font-family:Arial;" text-anchor="middle"><textPath startOffset="22.145653131862474" xlink:href="#id3">March</textPath></text><line stroke="#e1ed5e" stroke-width="0.3" x1="184.99686870605535" x2="189.99668451229388" y1="99.2704041080226" y2="99.22748670261217" /><path d="M 185.99683186730306 99.26182062694052 a86.0,86.0 0 0,1 -10.086455211305974,41.156179273409016" fill="none" id="id4" stroke="none" /><text fill="#e1ed5e" style="font-size:6.75px; font-family:Arial;" text-anchor="middle"><textPath startOffset="21.40746469413373" xlink:href="#id4">April</textPath></text><line stroke="#e1ed5e" stroke-width="0.3" x1="174.33088141563837" x2="178.70328620479359" y1="141.23008692659167" y2="143.65538615756765" /><path d="M 175.20536237346943 141.71514677278685 a86.0,86.0 0 0,1 -30.301960400862466,31.631185727798858" fill="none" id="id5" stroke="none" /><text fill="#e1ed5e" style="font-size:6.75px; font-family:Arial;" text-anchor="middle"><textPath startOffset="22.145653131862474" xlink:href="#id5">May</textPath></text><line stroke="#e1ed5e" stroke-width="0.3" x1="143.1302829299769" x2="145.66735839644613" y1="173.24464959558577" y2="177.55315839532614" /><path d="M 143.63769802327073 174.10635135553383 a86.0,86.0 0 0,1 -40.68552437913181,11.842963189579606" fill="none" id="id6" stroke="none" /><text fill="#e1ed5e" style="font-size:6.75px; font-family:Arial;" text-anchor="middle"><textPath startOffset="21.407464694133747" xlink:href="#id6">June</textPath></text><path d="M 104.29559338865022 120.5559693870025 l 3.489525472079034 16.69864260633888 a38.05935089370415,38.05935089370415 0 0,0 -0.6406721094921365,0.12815236496731822 l -3.202356877055939 -16.75608436796906" fill="#ffa80f" stroke="none" /><path d="M 103.94208987418118 120.62667999033965 l 2.2005564239628987 11.514241076808794 a32.72263605806797,32.72263605806797 0 0,0 -0.5526467826879267,0.10071065343868277 l -2.0025749077239148 -11.55031990417884" fill="#ff5a08" stroke="none" /><path d="M 103.58742460773223 120.69131181640829 l 2.848174560918973 16.427513994444613 a37.67259171116295,37.67259171116295 0 0,0 -0.6381423042836675,0.10500607332824742 l -2.5657547535822327 -16.47398606626853" fill="#ffa20f" stroke="none" /><path d="M 102.875027216393 120.80226474461374 l 1.365494650818763 9.880039072925088 a30.973953465098035,30.973953465098035 0 0,0 -0.5273273955950293,0.06827308882203056 l -1.1956894333329584 -9.902023757947513" fill="#ff4006" stroke="none" /><path d="M 102.51750503828377 120.84855314841334 l 2.101753993093552 17.405538087730246 a38.53197438883918,38.53197438883918 0 0,0 -0.6573630030456459,0.0736588956192774 l -1.8026550884471066 -17.439052743856493" fill="#ffae10" stroke="none" /><path d="M 101.80034050326958 120.92268563240118 l 1.4342528654686908 16.668192359764173 a37.72978534901766,37.72978534901766 0 0,0 -0.6457740321386666,0.04998699424795145 l -1.1479098385547886 -16.69035712100718" fill="#ffa30f" stroke="none" /><path d="M 101.44090949804482 120.95050786540614 l 1.1774074083385047 17.11924531183573 a38.15968671777023,38.15968671777023 0 0,0 -0.65390375172597,0.03933722591757647 l -0.8833593044800696 -17.136934515577998" fill="#ffa90f" stroke="none" /><path d="M 101.08105385017728 120.97215588758144 l 0.8192244299188811 15.892735082860419 a36.913835398186016,36.913835398186016 0 0,0 -0.6331148851356105,0.02718867729340869 l -0.546283784182441 -15.90445632857966" fill="#ff970e" stroke="none" /><line stroke="#e1ed5e" stroke-width="0.3" x1="101.45913802915013" x2="101.54496967792366" y1="184.9874750549273" y2="189.98673829345242" /><path d="M 101.47630435890484 185.9873277026323 a86.0,86.0 0 0,1 -42.54439059252881,-10.42667462771756" fill="none" id="id7" stroke="none" /><text fill="#e1ed5e" style="font-size:6.75px; font-family:Arial;" text-anchor="middle"><textPath startOffset="22.145653131862474" xlink:href="#id7">July</textPath></text><path d="M 100.0 121.0 l 2.0561130575786155e-15 16.789437240273372 a37.78943724027337,37.78943724027337 0 0,0 -0.6487059409113468,-0.005568360303095872 l 0.28821301606249267 -16.786963278164713" fill="#ffa40f" stroke="none" /><path d="M 99.27912038922189 120.98762331915562 l -0.5650286137094134 16.450191587854544 a37.45989248480775,37.45989248480775 0 0,0 -0.642480394461428,-0.027590872561170557 l 0.8473347687716801 -16.438068146867543" fill="#ff9f0e" stroke="none" /><path d="M 98.19965949673042 120.92268563240118 l -1.4767895457338849 17.16253306221366 a38.225952759541805,38.225952759541805 0 0,0 -0.653300530258254,-0.061868239449457366 l 1.771189639377154 -17.13465306725902" fill="#ffaa0f" stroke="none" /><path d="M 97.84075906011543 120.88869738790638 l -1.7507890175104235 16.937295556650675 a38.02754365600552,38.02754365600552 0 0,0 -0.6487573162978602,-0.07269461046944317 l 2.0412822354090827 -16.904745185674262" fill="#ffa70f" stroke="none" /><path d="M 96.41257539226777 120.69131181640829 l -2.8662378882153754 16.531698466147855 a37.77833048331915,37.77833048331915 0 0,0 -0.6380315069934575,-0.11627059452196471 l 3.14960412875989 -16.480059697694525" fill="#ffa40f" stroke="none" /><path d="M 93.61358852112213 120.00534299687104 l -5.21376714392405 16.33205131942797 a38.14407384875283,38.14407384875283 0 0,0 -0.6220703803182461,-0.2044868898983733 l 5.4933602618900395 -16.240143508127574" fill="#ffa90f" stroke="none" /><path d="M 91.26138138417905 119.09545874513695 l -6.819362358903535 14.901537453165169 a37.387785739693896,37.387785739693896 0 0,0 -0.5813111432078392,-0.27208296714160707 l 7.074162215982865 -14.782278254453034" fill="#ff9e0e" stroke="none" /><path d="M 90.93487009805054 118.94263497670748 l -6.866024599597048 14.347350687527532 a36.90562056485595,36.90562056485595 0 0,0 -0.5691193792643617,-0.278384807333986 l 7.111304228123479 -14.227372130096326" fill="#ff970e" stroke="none" /><line stroke="#e1ed5e" stroke-width="0.3" x1="58.13341422392154" x2="55.67067388415222" y1="173.97424548756322" y2="178.32567169271397" /><path d="M 57.64086615596768 174.84453072859336 a86.0,86.0 0 0,1 -31.369924170532247,-30.572349798747897" fill="none" id="id8" stroke="none" /><text fill="#e1ed5e" style="font-size:6.75px; font-family:Arial;" text-anchor="middle"><textPath startOffset="22.145653131862474" xlink:href="#id8">August</textPath></text><path d="M 89.03521579738668 117.91015095944536 l -8.815433979996568 14.399348900741026 a37.883516370144875,37.883516370144875 0 0,0 -0.5517208682653545,-0.344314626896566 l 9.061318977051634 -14.245898477002912" fill="#ffa50f" stroke="none" /><path d="M 88.1277618465304 117.32195027204791 l -9.419516680151359 13.74335634200733 a37.66154668783912,37.66154668783912 0 0,0 -0.5301399083292219,-0.37007882875394166 l 9.654051679654346 -13.57963269744826" fill="#ffa20f" stroke="none" /><path d="M 87.83215693770417 117.11559508785305 l -9.65679010698503 13.583484638431516 a37.666272831466216,37.666272831466216 0 0,0 -0.523774615963036,-0.3791724296106487 l 9.88854573332202 -13.415711437447802" fill="#ffa20f" stroke="none" /><path d="M 86.40962598614128 116.0094264158162 l -10.82893532759446 12.756458586935706 a37.73299363561192,37.73299363561192 0 0,0 -0.49020642637010664,-0.423428635709678 l 11.04632123372743 -12.568685818761304" fill="#ffa30f" stroke="none" /><path d="M 85.86807049272751 115.53346607816431 l -23.002452571948552 25.283724813166554 a55.18156761695807,55.18156761695807 0 0,0 -0.6952095220796369,-0.6434755547613961 l 23.433091865342156 -24.885131512272782" fill="#7aff26" stroke="none" /><path d="M 84.3458050057657 113.99807769240083 l -24.916450446298377 22.28044363153788 a54.42525499171217,54.42525499171217 0 0,0 -0.6167908823457087,-0.701794801368805 l 25.295252392602677 -21.849436552357776" fill="#83ff25" stroke="none" /><path d="M 83.64595745247003 113.17365903436017 l -26.52224469484727 21.364442914975587 a55.0568478388797,55.0568478388797 0 0,0 -0.5865745278389037,-0.7411177540464481 l 26.885085653327735 -20.906005217014457" fill="#7cff26" stroke="none" /><path d="M 82.576782715395 111.72311816256416 l -28.069512944359275 18.88642101152607 a54.83185563279328,54.83185563279328 0 0,0 -0.5187499848982342,-0.7854535943977102 l 28.389587368178237 -18.4017875387893" fill="#7eff26" stroke="none" /><path d="M 82.18462484594161 111.11811171558189 l -28.65626011341222 17.88362571860363 a54.77877014532414,54.77877014532414 0 0,0 -0.491005686146851,-0.802020887811018 l 28.959033764014478 -17.389067714668055" fill="#7fff26" stroke="none" /><line stroke="#e1ed5e" stroke-width="0.3" x1="26.387840678322732" x2="22.057713659400548" y1="142.50000000000003" y2="145.00000000000006" /><path d="M 25.521815274538298 143.00000000000003 a86.0,86.0 0 0,1 -11.493303480769221,-40.785679425670985" fill="none" id="id9" stroke="none" /><text fill="#e1ed5e" style="font-size:6.75px; font-family:Arial;" text-anchor="middle"><textPath startOffset="21.40746469413373" xlink:href="#id9">September</textPath></text><path d="M 81.81346652052679 110.50000000000001 l -54.559600438419615 31.50000000000003 a84.0,84.0 0 0,0 -0.7102665399144867,-1.2549729196035138 l 55.09230034335548 -30.558770310297394" fill="#4dd2ff" stroke="none" /><path d="M 80.83023694016515 108.57439118712176 l -28.284442504419808 12.651271368642517 a51.984905277067796,51.984905277067796 0 0,0 -0.3573742365983768,-0.8177421910535763 l 28.497450623035153 -12.16386710781309" fill="#a0ff22" stroke="none" /><path d="M 80.41425534168474 107.57618678355246 l -32.213608736494436 12.46091588640943 a55.53970197549657,55.53970197549657 0 0,0 -0.3363307581606628,-0.8921572945189955 l 32.422770178469534 -11.906090311696289" fill="#76ff27" stroke="none" /><path d="M 79.83685265289637 105.86919833188381 l -32.24967921888097 9.387411608755288 a54.588172121044586,54.588172121044586 0 0,0 -0.2541768468994468,-0.9019839606962797 l 32.40607455785499 -8.832419724156013" fill="#81ff25" stroke="none" /><path d="M 79.13060592940153 102.33845913500099 l -39.000248156225425 4.370059152638119 a60.24432154139909,60.24432154139909 0 0,0 -0.10633870790975675,-1.0287305363275567 l 39.06951925661684 -3.699924094027631" fill="#42ff2d" stroke="none" /><line stroke="#e1ed5e" stroke-width="0.3" x1="15.003131293944662" x2="10.003315487706104" y1="100.72959589197737" y2="100.7725132973878" /><path d="M 14.003168132696942 100.73817937305945 a86.0,86.0 0 0,1 10.791469493833604,-42.45332614584628" fill="none" id="id10" stroke="none" /><text fill="#e1ed5e" style="font-size:6.75px; font-family:Arial;" text-anchor="middle"><textPath startOffset="22.145653131862435" xlink:href="#id10">October</textPath></text><path d="M 79.00077361379809 99.81974689727619 l -34.016111260106285 -0.2919874039389128 a55.01736441736762,55.01736441736762 0 0,0 0.01621327252180939,-0.9443418418806989 l 34.00608655598581 0.8758761617886641" fill="#7cff26" stroke="none" /><path d="M 79.0935383218832 98.0201363427161 l -33.93992490089796 -3.2141461753218965 a55.091776690500154,55.091776690500154 0 0,0 0.09724382646910887,-0.9407458086006187 l 33.879748681947184 3.7962965062054277" fill="#7bff26" stroke="none" /><path d="M 81.29705330413844 90.45014215332179 l -27.182436281620525 -13.879545647922107 a51.52092117871139,51.52092117871139 0 0,0 0.4089581828318722,-0.7842312387377486 l 26.940170029813714 14.344123129764341" fill="#a6ff21" stroke="none" /><line stroke="#e1ed5e" stroke-width="0.3" x1="26.387840678322718" x2="22.05771365940052" y1="57.49999999999999" y2="54.99999999999999" /><path d="M 25.521815274538284 56.99999999999999 a86.0,86.0 0 0,1 29.574782752854787,-30.34633250058573" fill="none" id="id11" stroke="none" /><text fill="#e1ed5e" style="font-size:6.75px; font-family:Arial;" text-anchor="middle"><textPath startOffset="21.40746469413373" xlink:href="#id11">November</textPath></text><path d="M 81.99639281039701 89.18935116829357 l -5.04215402009461 -3.027668616214776 a26.88133440742559,26.88133440742559 0 0,0 0.24094896636500004,-0.3935720285394105 l 4.989437089274217 3.113777760878729" fill="#ff0000" stroke="none" /><path d="M 82.576782715395 88.27688183743585 l -38.14606207569167 -25.666372969186032 a66.9770024390008,66.9770024390008 0 0,0 0.6500285949721025,-0.9484111464042098 l 37.69984374390425 26.317418850660275" fill="#36ff6f" stroke="none" /><line stroke="#e1ed5e" stroke-width="0.3" x1="56.869717070023135" x2="54.33264160355391" y1="26.7553504044142" y2="22.446841604673864" /><path d="M 56.362301976729285 25.89364864446614 a86.0,86.0 0 0,1 42.16139366436587,-11.88097634709845" fill="none" id="id12" stroke="none" /><text fill="#e1ed5e" style="font-size:6.75px; font-family:Arial;" text-anchor="middle"><textPath startOffset="22.145653131862474" xlink:href="#id12">December</textPath></text><path d="M 90.28995756902619 81.37971332152246 l -23.961478350195463 -45.94929417584699 a72.82171436748703,72.82171436748703 0 0,0 1.1133842929309048,-0.5685019531476974 l 23.169166835550975 46.35385408066752" fill="#3effb5" stroke="none" /><path d="M 95.00130118170881 79.60360301121753 l -12.145806427792326 -49.559034991999226 a72.02566572931318,72.02566572931318 0 0,0 1.2034042957092181,-0.28400013708735944 l 11.293269978343202 49.76023127273282" fill="#3dffac" stroke="none" /></svg>